/* XPM */
static char *_d2241e8d57b4814f0dbe05be4c9f71cYG3jl3JePXIVl5dJ[] = {
/* columns rows colors chars-per-pixel */
"96 96 3 1 ",
"  c None",
". c gray33",
"X c #8C8A41",
/* pixels */
"                                                                                                ",
"                                                                                                ",
"                                                                                                ",
"                                                                                                ",
"                                                                                                ",
"                         XXXXXXX                                XXXXXXX                         ",
"                       XXXXXXXXXXX                           XXXXXXXXXXXX                       ",
"                      XXXXXXXXXXXXXXX                      XXXXXXXXXXXXXXX                      ",
"                     XXXXXXXXXXXXXXXXX                   XXXXXXXXXXXXXXXXXX                     ",
"                     XXXXX      XXXXXXXXXXX             XXXXXXXX      XXXXX                     ",
"                    XXXXX         XXXXXXXXXX           XXXXXXX         XXXXX                    ",
"                    XXXX            XXXXXXXX         XXXXXXX            XXXX                    ",
"                   XXXX              XXXXXXXX       XXXXXX              XXXX                    ",
"                   XXXX              XXXXXXX       XXXXXX                XXXX                   ",
"                   XXXX              XXXXXXX      XXXXXX                 XXXX                   ",
"                   XXXX               XXXXX      XXXXX                   XXXX                   ",
"                   XXXX                         XXXXX                    XXXX                   ",
"                   XXX                         XXXXX                     XXXX                   ",
"                   XXX                        XXXXX                      XXXX                   ",
"                   XXX                       XXXXX                      XXXXXX                  ",
"                   XXXX                     XXXXX                      XXXXXXX                  ",
"                   XXXX                    XXXXX                       XXXXXXXX                 ",
"                   XXXX                   XXXXX                        XXXXXXXX                 ",
"                   XXXX                   XXXXX                        XXXXXXXX                 ",
"                   XXXX                  XXXXX                          XXXXXX                  ",
"                   XXXX                 XXXXX                            XXXX                   ",
"                    XXX                XXXXX                                                    ",
"                    XXXX               XXXX     XXXX                                            ",
"                    XXXX              XXXXX    XXXXXX                                           ",
"                    XXXX             XXXXX    XXXXXXXXXXXXXXX                                   ",
"                    XXXX             XXXX     XXXXXXXXXXXXXXXXXXXXXX                            ",
"                     XXXX           XXXX      XXXXXXXXXXXXXXXXXXXXXXXXXXX                       ",
"                     XXXX          XXXXX      XXXXXXXXXXXXXXXXXXXXXXXXXXXXXXX                   ",
"           XXXXX     XXXX          XXXX        XXXXXX          XXXXXXXXXXXXXXXXX                ",
"          XXXXXX      XXXX        XXXX          XXXX                 XXXXXXXXXXXXXX             ",
"         XXXXXXXX     XXXX       XXXXX                                    XXXXXXXXXXX           ",
"         XXXXXXXX     XXXX       XXXX                                        XXXXXXXXXX         ",
"       XXXXXXXXXX      XXXX     XXXXX        .......                            XXXXXXXXX       ",
"      XXXXXXXXXX       XXXX     XXXX       ...........                             XXXXXXXX     ",
"    XXXXXXXXXXXX       XXXXX   XXXX       ..............                             XXXXXXX    ",
"   XXXXXX               XXXX  XXXXX      ................                              XXXXXX   ",
"  XXXXXX                XXXX  XXXX      .................                               XXXXXX  ",
"  XXXXX                  XXXXXXXXX     ...................                               XXXXX  ",
" XXXXX                   XXXXXXXX      ....................                               XXXXX ",
"XXXXX                     XXXXXXX      ....................                                XXXXX",
"XXXX                      XXXXXX      .....................                                 XXXX",
"XXXX                      XXXXXX      .....................                                 XXXX",
"XXXX                       XXXX       .....................                                 XXXX",
"XXXX                      XXXXXX      .....................                                 XXXX",
"XXXX                      XXXXXX      .....................                                 XXXX",
"XXXXX                     XXXXXXX      ....................                                XXXX ",
" XXXXX                   XXXXXXXX      ....................                               XXXXX ",
"  XXXXX                  XXXXXXXXX     ...................                               XXXXX  ",
"  XXXXXX                XXXX  XXXX      .................                               XXXXXX  ",
"   XXXXXX               XXXX   XXXX      ................                             XXXXXXX   ",
"    XXXXXXX            XXXXX   XXXX       ..............                             XXXXXXX    ",
"      XXXXXXX          XXXX     XXXX       ...........                            XXXXXXXX      ",
"       XXXXXXXXX       XXXX     XXXXX        .......                            XXXXXXXXX       ",
"         XXXXXXXXXX   XXXX       XXXX                                        XXXXXXXXXX         ",
"           XXXXXXXXXXXXXXX       XXXXX                                   XXXXXXXXXXXX           ",
"             XXXXXXXXXXXXXX       XXXXX                              XXXXXXXXXXXXXX             ",
"                XXXXXXXXXXXXXXXXXXXXXXX                       XXXXXXXXXXXXXXXXXX                ",
"                   XXXXXXXXXXXXXXXXXXXXXXXXXXXXXXXXXXXXXXXXXXXXXXXXXXXXXXXXXX                   ",
"                     XXXXXXXXXXXXXXXXXXXXXXXXXXXXXXXXXXXXXXXXXXXXXXXXXXX                        ",
"                     XXXX   XXXXXXXXXXXXXXXXXXXXXXXXXXXXXXXXXXXXXXX                             ",
"                    XXXX            XXXXXXXXXXXXXXXXXXXXXXXX                                    ",
"                    XXXX              XXXXX                               XX                    ",
"                    XXXX               XXXX                             XXXXXX                  ",
"                    XXXX               XXXXX                           XXXXXXXX                 ",
"                    XXX                 XXXXX                          XXXXXXXX                 ",
"                   XXXX                  XXXXX                         XXXXXXXX                 ",
"                   XXXX                   XXXXX                        XXXXXXXX                 ",
"                   XXXX                    XXXXX                        XXXXXX                  ",
"                   XXXX                    XXXXXX                        XXXX                   ",
"                   XXXX                     XXXXX                        XXXX                   ",
"                   XXXX                      XXXXX                       XXXX                   ",
"                   XXXX                       XXXXX                       XXX                   ",
"                   XXXX                        XXXXX                     XXXX                   ",
"                   XXXX                         XXXXXX                   XXXX                   ",
"                   XXXX                X         XXXXXX                  XXXX                   ",
"                   XXXX              XXXXX        XXXXXX                 XXXX                   ",
"                   XXXX             XXXXXXX        XXXXXX                XXXX                   ",
"                    XXXX            XXXXXXX         XXXXXXX              XXXX                   ",
"                    XXXX           XXXXXXXX           XXXXXX            XXXX                    ",
"                    XXXXX         XXXXXXXXX            XXXXXXX         XXXXX                    ",
"                     XXXXX      XXXXXXXXXXX             XXXXXXXX      XXXXX                     ",
"                     XXXXXXXXXXXXXXXXXXXXX                XXXXXXXXXXXXXXXXX                     ",
"                      XXXXXXXXXXXXXXX                       XXXXXXXXXXXXXX                      ",
"                        XXXXXXXXXXX                           XXXXXXXXXXX                       ",
"                         XXXXXXX                                XXXXXXX                         ",
"                                                                                                ",
"                                                                                                ",
"                                                                                                ",
"                                                                                                ",
"                                                                                                ",
"                                                                                                "
};
