<?xml version="1.0" standalone="no"?>
<!DOCTYPE svg PUBLIC "-//W3C//DTD SVG 20010904//EN"
 "http://www.w3.org/TR/2001/REC-SVG-20010904/DTD/svg10.dtd">
<svg version="1.0" xmlns="http://www.w3.org/2000/svg"
 width="814.000000pt" height="585.000000pt" viewBox="0 0 814.000000 585.000000"
 preserveAspectRatio="xMidYMid meet">

<g transform="translate(0.000000,585.000000) scale(0.100000,-0.100000)"
fill="#000000" stroke="none">
<path d="M0 2925 l0 -2925 4070 0 4070 0 0 2925 0 2925 -4070 0 -4070 0 0
-2925z m3084 2709 c97 -16 286 -76 381 -119 53 -25 72 -28 170 -29 101 -1 114
-3 160 -29 63 -35 87 -68 93 -126 5 -62 -25 -107 -97 -143 -46 -23 -67 -28
-132 -28 -68 0 -85 4 -140 33 -67 35 -99 77 -99 132 0 28 -6 34 -52 55 -72 31
-239 85 -313 101 -88 18 -219 16 -288 -4 -66 -20 -134 -76 -172 -141 -101
-175 -63 -527 98 -901 77 -180 220 -444 244 -452 6 -2 33 27 61 64 84 114 130
172 185 236 368 428 710 737 1100 995 60 40 110 72 113 72 2 0 21 10 42 23
215 135 510 249 715 276 271 37 499 -39 620 -207 63 -88 107 -235 107 -359 0
-48 2 -53 34 -72 132 -82 74 -245 -99 -281 -91 -19 -205 11 -257 68 -73 79
-45 177 66 234 l39 20 -7 76 c-10 126 -39 202 -103 273 -84 92 -203 117 -397
83 -168 -29 -453 -150 -636 -269 -19 -12 -69 -44 -110 -71 -215 -138 -548
-416 -769 -643 -162 -167 -581 -684 -581 -718 0 -11 63 -101 197 -280 45 -62
83 -119 83 -128 0 -8 8 -15 18 -15 10 0 25 -12 34 -27 9 -16 52 -66 96 -113
l81 -84 78 -7 c43 -4 305 -5 583 -4 278 2 492 0 475 -4 -25 -6 -27 -9 -13 -15
10 -5 15 -12 12 -17 -3 -5 4 -9 15 -9 12 0 20 3 20 8 -6 37 37 50 236 67 825
72 1554 274 1771 492 98 98 99 181 2 284 -57 60 -120 102 -226 151 -48 22 -96
44 -107 49 -35 16 -276 87 -400 118 -394 98 -871 160 -1432 187 l-142 7 -35
-31 c-53 -47 -113 -65 -198 -61 -126 7 -206 62 -215 150 -6 59 21 106 81 143
39 24 61 30 127 34 87 5 147 -11 197 -53 24 -20 42 -23 167 -29 180 -10 429
-30 675 -56 732 -76 1302 -236 1573 -441 72 -55 157 -151 138 -157 -13 -4 -15
-32 -3 -32 4 0 14 6 21 13 11 10 12 6 6 -23 -4 -19 -11 -37 -16 -38 -5 -2 -9
-8 -9 -13 0 -5 9 -4 20 3 10 7 23 9 27 5 4 -5 2 -12 -5 -16 -9 -5 -11 -17 -7
-34 4 -15 4 -34 1 -43 -5 -14 -9 -14 -22 -3 -20 16 -55 94 -50 112 1 6 1 9 -1
5 -9 -15 -32 -8 -27 7 4 8 -1 17 -10 21 -9 3 -16 18 -16 32 0 19 -3 23 -11 15
-8 -8 -8 -17 0 -31 6 -11 8 -27 5 -35 -5 -15 35 -89 56 -102 5 -3 10 -17 10
-30 0 -12 6 -25 14 -28 13 -5 32 -94 22 -104 -3 -3 -13 3 -23 13 -17 17 -18
17 -21 -4 -4 -28 -19 -28 -41 -1 l-16 20 -24 -25 c-13 -13 -20 -29 -16 -35 9
-16 25 -13 25 4 0 23 30 18 39 -7 10 -28 -16 -59 -40 -47 -21 11 -44 -14 -35
-37 5 -12 2 -15 -10 -10 -8 3 -20 6 -25 6 -5 0 -9 5 -9 11 0 14 25 39 39 39
16 0 14 7 -9 30 -24 24 -27 24 -46 5 -9 -8 -12 -15 -8 -15 3 0 0 -7 -7 -17
-11 -13 -11 -17 -1 -20 6 -3 12 -13 12 -23 0 -11 9 -24 21 -30 20 -11 20 -12
-12 -36 -18 -13 -41 -24 -52 -24 -10 0 -15 -4 -12 -10 3 -5 0 -7 -9 -4 -8 3
-23 -4 -33 -15 -13 -16 -25 -20 -49 -15 -27 5 -32 3 -31 -12 2 -13 -19 -26
-83 -52 -97 -38 -153 -58 -225 -77 -27 -7 -86 -23 -130 -35 -44 -12 -98 -26
-120 -31 -22 -4 -89 -19 -150 -32 -188 -41 -434 -80 -645 -101 -85 -9 -193
-21 -240 -26 -109 -12 -509 -28 -902 -36 -170 -4 -308 -10 -308 -14 0 -5 54
-56 120 -115 140 -124 196 -188 192 -220 -2 -14 3 -25 15 -29 11 -5 14 -9 6
-14 -17 -11 -19 -85 -2 -108 7 -12 25 -27 39 -34 33 -17 76 -60 60 -60 -12 0
-68 35 -85 54 -5 6 -30 24 -55 40 -120 76 -239 176 -447 372 l-153 144 -48 0
c-63 0 -447 36 -594 56 -65 9 -125 14 -132 11 -8 -3 -31 -57 -51 -119 -195
-616 -46 -932 405 -854 92 16 309 82 311 95 12 117 79 177 205 188 82 6 135
-6 194 -46 53 -36 69 -63 70 -120 0 -59 -36 -106 -107 -138 -49 -23 -65 -25
-146 -21 -82 4 -97 2 -161 -25 -100 -40 -283 -86 -393 -97 -217 -23 -407 33
-528 155 -53 52 -99 125 -119 189 -60 186 -41 432 57 723 25 74 31 105 23 111
-6 5 -51 17 -101 26 -151 28 -392 92 -535 141 -323 111 -537 250 -608 394 -39
81 -39 175 3 251 68 124 226 238 473 342 44 19 62 32 62 45 0 27 56 91 100
113 98 50 241 29 317 -47 38 -38 43 -48 43 -89 0 -57 -32 -104 -91 -134 -56
-29 -119 -35 -213 -20 l-82 13 -84 -37 c-149 -64 -269 -153 -319 -236 -121
-200 271 -437 953 -576 172 -35 158 -39 209 64 63 128 123 235 188 340 67 106
68 90 -13 209 -26 40 -48 75 -48 78 0 3 -11 23 -25 45 -117 185 -262 531 -315
750 -46 190 -50 366 -12 514 30 114 122 232 227 291 144 80 291 97 519 59z
m1266 -1415 c181 -46 330 -150 388 -272 62 -131 66 -213 16 -316 -37 -75 -142
-177 -224 -218 -360 -176 -848 -71 -991 214 -31 61 -34 76 -34 153 0 76 4 93
33 152 119 242 481 369 812 287z m2650 -490 c0 -11 -4 -18 -10 -14 -5 3 -7 12
-3 20 7 21 13 19 13 -6z m-220 -165 c0 -3 -7 -12 -15 -21 -20 -19 -32 -10 -14
11 14 15 29 21 29 10z m-900 -648 c25 -13 53 -37 63 -54 17 -29 17 -33 2 -55
-13 -20 -24 -25 -56 -23 -23 0 -45 -5 -51 -11 -19 -23 -37 -14 -40 20 -3 29
-6 32 -33 29 -91 -7 -155 -8 -155 -1 0 4 6 10 13 12 8 4 7 6 -4 6 -8 1 -26
-10 -39 -24 -21 -23 -22 -28 -12 -64 7 -21 19 -44 27 -51 19 -16 19 -30 1 -30
-20 0 -62 58 -70 96 -14 63 43 139 126 171 50 19 172 8 228 -21z m-180 -142
c0 -8 -4 -14 -10 -14 -5 0 -10 9 -10 21 0 11 5 17 10 14 6 -3 10 -13 10 -21z
m-50 7 c0 -5 -7 -14 -15 -21 -13 -10 -15 -9 -15 9 0 12 6 21 15 21 8 0 15 -4
15 -9z m34 -137 c9 -4 16 -18 16 -34 0 -41 10 -60 31 -60 19 0 19 -7 4 -82 -5
-28 22 -21 45 12 30 42 40 38 40 -16 0 -36 4 -47 18 -51 28 -7 18 -109 -20
-207 -118 -298 -531 -371 -990 -174 -31 13 -53 31 -62 49 -13 26 -5 42 9 19 3
-5 13 -10 22 -10 13 0 13 3 3 15 -8 9 -30 15 -56 15 -44 0 -60 14 -26 23 9 3
3 5 -15 6 -33 1 -51 15 -33 26 18 11 11 25 -12 25 -30 1 -67 48 -47 61 22 14
37 11 103 -19 112 -53 130 -60 236 -95 171 -56 247 -70 368 -66 92 4 115 8
164 32 135 66 199 220 185 445 -4 50 -5 92 -3 92 3 0 11 -3 20 -6z m-1169
-314 c3 -5 -1 -10 -10 -10 -9 0 -13 5 -10 10 3 6 8 10 10 10 2 0 7 -4 10 -10z
m76 -30 c6 0 7 -4 4 -10 -10 -16 -45 -12 -45 6 0 11 5 14 16 10 9 -3 20 -6 25
-6z m1694 -914 c135 -46 218 -131 227 -231 l3 -40 -195 0 -194 0 -8 44 c-9 55
-27 74 -68 74 -39 0 -48 -9 -63 -69 l-12 -49 -110 2 c-101 3 -181 19 -209 44
-5 5 -14 -2 -21 -14 -19 -38 -40 -28 -37 18 6 85 88 173 199 215 91 34 129 39
273 36 116 -3 146 -7 215 -30z m-5337 4 c17 0 27 -10 39 -37 15 -38 33 -78
118 -258 26 -55 54 -117 62 -137 8 -21 19 -35 24 -32 5 3 9 108 9 235 0 126 3
229 8 230 13 1 185 1 260 0 l72 -1 0 -555 0 -555 -177 2 -178 3 -82 195 c-45
107 -90 214 -100 238 -9 23 -21 42 -25 42 -4 0 -8 -108 -8 -240 l0 -240 -167
2 -168 3 -3 545 c-1 300 0 550 2 555 2 6 57 9 147 8 79 -2 154 -3 167 -3z
m1432 -100 l0 -110 -122 0 c-68 0 -129 -4 -136 -8 -9 -6 -12 -35 -10 -108 l3
-99 124 -5 125 -5 -2 -75 c-1 -41 -1 -87 -2 -102 l0 -27 -122 -3 -123 -3 0
-120 0 -120 145 -5 145 -5 0 -105 0 -105 -347 -3 -348 -2 0 559 0 560 335 1
335 1 0 -111z m548 -354 c2 -414 4 -461 19 -478 13 -14 25 -17 47 -12 17 3 36
10 41 16 6 5 12 183 15 471 l5 462 195 0 195 0 0 -461 0 -461 -30 -49 c-33
-53 -114 -115 -176 -133 -20 -6 -81 -18 -134 -26 -86 -13 -112 -13 -212 0 -69
10 -140 26 -180 42 -84 33 -157 101 -172 158 -8 30 -16 728 -11 928 0 4 89 6
198 5 l197 -3 3 -459z m1005 454 c139 0 216 -4 212 -10 -3 -5 6 -12 20 -16
l26 -7 -25 -26 c-29 -31 -32 -41 -12 -41 25 0 29 -21 7 -27 -20 -5 -20 -6 -4
-18 15 -11 13 -13 -15 -20 -32 -7 -45 -25 -18 -25 25 0 28 -19 6 -42 l-21 -23
29 -25 c33 -27 34 -57 2 -40 -19 10 -50 4 -50 -11 0 -4 15 -11 33 -14 33 -6
34 -8 34 -56 1 -35 -3 -49 -12 -49 -24 0 -28 -21 -5 -27 36 -10 22 -46 -20
-51 -19 -2 -36 -8 -38 -13 -2 -5 -21 -9 -43 -9 -21 0 -39 -4 -39 -10 0 -5 12
-10 27 -10 14 0 35 -8 45 -17 17 -15 19 -15 33 3 14 19 14 19 15 -2 0 -11 9
-29 20 -39 13 -12 18 -25 14 -34 -4 -9 -6 -28 -5 -42 1 -16 -5 -29 -14 -33
-21 -8 -19 -23 5 -29 26 -7 25 -31 -2 -57 l-23 -21 23 -6 c37 -9 25 -22 -29
-29 -33 -4 -46 -10 -37 -15 10 -7 10 -9 1 -9 -7 0 -13 -5 -13 -11 0 -7 10 -9
24 -5 30 7 56 -2 56 -20 0 -8 5 -14 10 -14 6 0 10 -7 10 -15 0 -10 -11 -15
-35 -15 -43 0 -46 -18 -5 -27 30 -5 30 -6 15 -29 -15 -23 -14 -25 7 -34 30
-12 43 -10 -194 -24 -76 -5 -141 -8 -145 -7 -5 0 -10 200 -13 443 l-5 443
-117 3 -118 3 0 111 0 111 83 -6 c45 -4 180 -7 300 -7z m3074 2 c9 -6 133
-264 133 -277 0 -3 -103 -5 -230 -5 l-230 0 0 138 c0 76 3 142 7 145 9 9 305
9 320 -1z m567 -153 c4 -83 5 -153 3 -156 -3 -2 -26 3 -51 11 -32 11 -83 16
-161 16 l-115 0 0 138 c0 76 2 141 4 143 2 2 74 3 159 1 l154 -3 7 -150z
m-3027 84 c-2 -16 -4 -5 -4 22 0 28 2 40 4 28 2 -13 2 -35 0 -50z m0 -70 c-3
-10 -5 -4 -5 12 0 17 2 24 5 18 2 -7 2 -21 0 -30z m2945 -224 c23 -6 57 -26
75 -44 l33 -33 0 -106 c0 -125 -11 -154 -67 -182 -36 -18 -71 -19 -678 -19
-352 0 -662 4 -688 8 -43 7 -48 11 -44 29 5 18 2 20 -34 16 -26 -2 -39 0 -39
9 0 14 40 22 130 26 l65 2 0 105 0 105 -40 0 -40 0 -6 -50 -6 -50 -1 47 c-2
53 -16 63 -83 56 -32 -3 -34 -5 -31 -38 l2 -35 -15 27 c-20 36 -64 58 -116 58
-30 0 -52 7 -75 25 -18 14 -40 25 -50 25 -34 0 -4 12 48 19 92 13 1613 13
1660 0z m-2932 -48 c-23 -21 -30 -37 -30 -65 0 -20 -4 -36 -10 -36 -28 0 3 99
37 119 32 19 33 11 3 -18z m1030 -16 c0 -18 -4 -23 -15 -19 -16 6 -20 26 -8
37 13 14 23 6 23 -18z m220 -46 c0 -18 -2 -19 -15 -5 -8 8 -15 17 -15 20 0 3
7 6 15 6 9 0 15 -9 15 -21z m138 -71 c-6 -18 -28 -21 -28 -4 0 9 7 16 16 16 9
0 14 -5 12 -12z m82 -4 c0 -11 -5 -14 -16 -10 -9 3 -21 6 -27 6 -16 0 14 20
31 20 6 0 12 -7 12 -16z m-1500 -52 c0 -32 5 -63 12 -70 6 -6 8 -15 4 -19 -4
-5 -14 1 -22 11 -16 23 -20 136 -4 136 6 0 10 -26 10 -58z m1627 16 c-3 -8 -6
-5 -6 6 -1 11 2 17 5 13 3 -3 4 -12 1 -19z m-120 -52 c-1 -19 -6 -32 -10 -29
-4 3 -14 0 -21 -6 -7 -6 -21 -8 -31 -5 -15 6 -11 12 21 40 22 18 40 33 41 34
2 0 2 -15 0 -34z m-243 -23 c-10 -7 -27 -13 -38 -13 -16 0 -13 5 14 25 23 17
36 22 39 14 2 -7 -4 -18 -15 -26z m1784 -290 l-3 -158 -166 -3 c-148 -2 -167
-1 -181 15 -15 18 -108 244 -108 263 0 6 68 10 183 11 125 0 193 4 217 13 63
24 61 31 58 -141z m-1428 79 c0 -54 -26 -92 -62 -92 l-21 0 21 23 c12 13 24
38 28 57 8 51 12 60 24 60 5 0 10 -22 10 -48z m355 35 c9 -21 -32 -121 -52
-131 -11 -5 -24 -19 -29 -30 -13 -29 -44 -34 -37 -6 4 16 2 19 -11 14 -24 -9
-19 12 6 30 22 16 22 16 -14 16 -20 0 -40 5 -43 10 -3 6 -15 10 -25 10 -17 0
-50 34 -50 51 0 4 19 16 43 28 32 16 61 21 125 21 57 0 84 -4 87 -13z m503
-129 l-3 -143 -75 1 c-41 0 -114 1 -162 2 l-88 2 0 140 0 140 165 0 166 0 -3
-142z m-2454 4 c1 -75 -3 -122 -9 -122 -6 0 -10 49 -11 125 0 77 3 124 9 122
5 -1 10 -56 11 -125z m1053 86 c-3 -7 -5 -2 -5 12 0 14 2 19 5 13 2 -7 2 -19
0 -25z"/>
<path d="M6810 3970 c-8 -5 -10 -10 -5 -10 6 0 17 5 25 10 8 5 11 10 5 10 -5
0 -17 -5 -25 -10z"/>
<path d="M6854 3720 c3 -14 6 -28 6 -32 0 -5 5 -8 11 -8 12 0 2 39 -13 55 -7
7 -9 2 -4 -15z"/>
<path d="M6815 3660 c-3 -5 1 -10 9 -10 9 0 16 5 16 10 0 6 -4 10 -9 10 -6 0
-13 -4 -16 -10z"/>
<path d="M6782 3631 c-11 -7 -11 -9 2 -14 10 -4 16 -1 16 8 0 17 -1 17 -18 6z"/>
<path d="M2913 3581 c-3 -12 -9 -21 -14 -21 -5 0 -9 -9 -9 -20 0 -11 -4 -20
-9 -20 -13 0 -130 -245 -134 -283 -2 -25 0 -25 273 -57 188 -21 260 -25 260
-12 0 5 -36 51 -81 103 -44 52 -119 144 -166 204 -95 123 -112 137 -120 106z"/>
<path d="M6645 3490 c3 -5 10 -10 16 -10 5 0 9 5 9 10 0 6 -7 10 -16 10 -8 0
-12 -4 -9 -10z"/>
<path d="M6580 3479 c0 -5 5 -7 10 -4 6 3 10 8 10 11 0 2 -4 4 -10 4 -5 0 -10
-5 -10 -11z"/>
<path d="M6530 3455 c12 -15 30 -12 30 6 0 5 -10 9 -21 9 -18 0 -19 -2 -9 -15z"/>
<path d="M6495 3440 c3 -5 8 -10 11 -10 2 0 4 5 4 10 0 6 -5 10 -11 10 -5 0
-7 -4 -4 -10z"/>
<path d="M6090 3316 c0 -2 7 -6 15 -10 8 -3 15 -1 15 4 0 6 -7 10 -15 10 -8 0
-15 -2 -15 -4z"/>
<path d="M4515 3100 c-3 -5 -1 -10 4 -10 6 0 11 -4 11 -9 0 -11 -39 -3 -57 12
-9 6 -15 4 -20 -8 -9 -25 22 -46 51 -36 12 5 45 9 74 9 55 0 94 18 70 33 -19
12 -70 11 -63 -1 3 -5 -3 -10 -13 -10 -11 0 -22 7 -26 15 -6 17 -22 20 -31 5z"/>
<path d="M3988 503 c6 -2 18 -2 25 0 6 3 1 5 -13 5 -14 0 -19 -2 -12 -5z"/>
<path d="M6284 935 c-3 -6 -6 -54 -7 -106 l-2 -94 45 0 45 0 3 61 c3 54 6 62
28 73 14 6 29 9 33 7 4 -3 6 -32 5 -65 -3 -69 8 -84 58 -79 l33 3 3 63 c3 57
5 64 28 72 21 8 25 16 22 42 l-3 32 -143 1 c-101 1 -145 -2 -148 -10z"/>
<path d="M6623 928 c-30 -21 -33 -27 -33 -81 0 -52 3 -62 30 -89 28 -28 35
-30 85 -26 78 7 92 23 93 107 1 85 -14 103 -91 108 -42 4 -58 0 -84 -19z m87
-38 c0 -5 -5 -10 -11 -10 -5 0 -7 5 -4 10 3 6 8 10 11 10 2 0 4 -4 4 -10z m8
-82 c-5 -32 -28 -35 -28 -4 0 17 5 26 16 26 10 0 14 -7 12 -22z"/>
<path d="M6832 937 c-10 -14 -9 -178 2 -195 8 -14 55 -16 74 -3 9 5 13 31 13
76 0 101 13 104 19 5 l5 -85 34 -3 c18 -2 38 1 44 7 13 13 11 181 -3 195 -15
15 -177 17 -188 3z"/>
<path d="M7100 939 c-35 -14 -40 -26 -40 -101 0 -60 3 -69 26 -87 51 -40 157
-18 170 35 12 47 -57 64 -78 19 -18 -41 -28 -29 -28 35 0 33 4 60 10 60 6 0
10 -6 10 -14 0 -19 34 -30 66 -22 20 5 24 11 18 29 -3 12 -12 28 -19 36 -17
17 -102 24 -135 10z"/>
<path d="M7273 918 c3 -18 12 -62 21 -97 15 -57 15 -66 1 -81 -21 -24 -10 -30
56 -30 73 0 81 11 104 134 18 96 15 106 -33 106 -21 0 -27 -8 -47 -65 -7 -17
-9 -15 -17 15 -11 41 -22 50 -62 50 -26 0 -28 -2 -23 -32z"/>
</g>
</svg>
