<?xml version="1.0" standalone="no"?>
<!DOCTYPE svg PUBLIC "-//W3C//DTD SVG 20010904//EN"
 "http://www.w3.org/TR/2001/REC-SVG-20010904/DTD/svg10.dtd">
<svg version="1.0" xmlns="http://www.w3.org/2000/svg"
 width="512.000000pt" height="512.000000pt" viewBox="0 0 512.000000 512.000000"
 preserveAspectRatio="xMidYMid meet">

<g transform="translate(0.000000,512.000000) scale(0.100000,-0.100000)"
fill="#000000" stroke="none">
<path d="M2435 3730 c-3 -5 1 -10 10 -10 9 0 13 5 10 10 -3 6 -8 10 -10 10 -2
0 -7 -4 -10 -10z"/>
<path d="M2460 3699 c-522 -42 -949 -448 -1036 -984 -13 -76 -6 -307 10 -379
9 -38 14 -71 11 -74 -8 -8 -32 58 -39 108 -19 126 -31 136 -16 13 16 -126 79
-317 131 -393 9 -14 20 -36 24 -48 4 -13 14 -32 23 -42 10 -10 39 -48 67 -84
27 -36 53 -66 57 -66 5 0 8 -4 8 -10 0 -11 48 -60 59 -60 4 0 16 -10 27 -21
49 -55 307 -209 349 -209 11 0 31 -7 43 -16 12 -8 22 -13 22 -10 0 2 28 -2 63
-10 94 -22 246 -40 318 -37 137 6 213 14 224 23 6 5 30 12 53 16 23 4 45 11
48 15 7 12 1 11 -70 -8 -47 -13 -105 -17 -256 -17 -192 -1 -197 -1 -303 32
-59 17 -112 32 -118 32 -6 0 -35 11 -65 25 -30 14 -56 25 -58 25 -13 0 -146
83 -146 91 0 5 -5 9 -11 9 -17 0 -79 51 -79 66 0 20 14 17 34 -5 56 -61 301
-194 381 -206 11 -1 38 -8 60 -14 44 -11 190 -25 270 -24 96 0 105 2 99 18 -4
8 -1 15 5 15 6 0 11 -8 11 -17 0 -14 2 -15 9 -4 6 9 11 10 15 3 9 -14 36 -4
36 13 0 7 -6 16 -12 18 -7 3 -5 6 6 6 10 1 25 -7 33 -16 13 -16 14 -15 8 10
-3 17 -1 35 6 43 10 12 8 16 -9 21 -12 3 -22 11 -22 18 0 8 -17 14 -44 17 -43
3 -45 2 -57 -34 -10 -30 -9 -40 1 -53 7 -8 10 -19 6 -22 -13 -13 -26 22 -26
72 0 36 -3 46 -10 35 -5 -8 -10 -10 -10 -4 0 22 26 33 94 38 37 4 76 11 87 17
11 5 27 9 37 8 9 -1 31 4 47 11 135 60 179 83 223 113 91 62 148 111 186 158
20 26 50 59 65 75 15 16 45 62 66 102 21 39 43 72 47 72 5 0 7 4 4 9 -3 5 1
22 9 38 8 16 25 81 37 146 22 110 37 140 52 101 4 -11 13 -14 29 -10 12 3 29
1 37 -4 9 -5 19 -5 27 2 10 8 13 6 13 -6 0 -9 -10 -20 -22 -25 -25 -9 -58 -3
-58 10 0 15 -28 10 -34 -7 -3 -9 -6 -29 -6 -45 0 -16 -5 -29 -11 -29 -5 0 -7
5 -3 12 4 7 3 8 -4 4 -15 -9 -15 -53 0 -58 6 -2 12 -12 14 -22 2 -13 -2 -16
-14 -11 -9 3 -13 3 -10 -1 4 -3 0 -20 -8 -36 -11 -21 -12 -37 -5 -63 5 -19 6
-37 1 -40 -5 -3 -10 -1 -12 5 -2 6 -12 4 -26 -5 -23 -17 -30 -55 -10 -55 7 0
3 -7 -9 -15 -23 -16 -21 -55 2 -55 7 0 18 -6 24 -14 18 -21 46 -13 49 15 2 13
10 28 18 32 21 12 17 43 -8 59 -16 11 -19 20 -14 34 8 19 8 19 16 -1 5 -11 9
-14 9 -6 1 9 10 12 30 9 17 -2 28 -1 25 3 -2 4 0 10 5 13 12 8 23 70 15 90 -3
9 -14 16 -23 16 -10 0 -25 6 -36 13 -17 13 -17 15 6 31 23 16 24 16 27 -9 4
-27 22 -35 22 -9 0 10 5 14 15 10 17 -6 24 6 29 47 1 14 9 34 17 43 11 14 11
16 0 10 -10 -7 -12 -2 -6 24 4 18 9 48 10 66 5 48 15 75 26 69 5 -4 9 -2 9 3
0 5 -18 15 -40 22 -40 13 -54 30 -25 30 10 0 15 10 15 30 0 33 -7 36 -45 18
-20 -9 -28 -9 -38 1 -17 17 9 32 48 29 23 -2 31 1 33 17 4 26 -24 65 -35 49
-5 -6 -21 -17 -38 -25 -20 -9 -31 -23 -33 -40 -4 -31 16 -87 26 -74 9 12 32
18 33 7 0 -4 2 -22 3 -39 4 -33 -10 -39 -41 -20 -7 5 -15 -5 -23 -28 -18 -55
-30 -41 -30 34 0 38 -7 105 -15 149 -9 44 -15 84 -13 89 3 13 -97 218 -133
270 -18 26 -50 66 -72 88 -38 39 -38 39 7 -20 51 -66 54 -91 3 -30 -84 103
-145 158 -236 214 -169 105 -302 143 -486 140 -97 -1 -228 -18 -239 -30 -2 -2
5 -12 14 -22 17 -17 18 -18 17 -1 -1 10 5 20 15 22 16 3 19 -3 33 -62 3 -17
10 -25 15 -20 5 5 5 25 1 47 -6 23 -5 39 1 43 17 11 32 -15 33 -55 0 -21 4
-37 9 -34 4 3 6 25 3 49 -4 38 -2 44 14 44 12 0 22 -11 28 -32 9 -32 12 -28
15 22 1 8 8 15 16 15 11 0 15 -12 15 -48 0 -26 3 -47 8 -47 4 0 7 13 7 29 0
17 5 33 11 37 8 4 7 9 -2 15 -18 11 -6 21 15 13 12 -5 16 -19 16 -56 0 -42 2
-49 14 -39 8 7 13 27 12 51 -3 42 0 45 23 31 15 -10 6 -71 -13 -83 -6 -5 -2
-8 12 -8 15 0 22 6 22 19 0 11 5 23 10 26 6 4 8 10 5 15 -3 4 2 11 11 14 13 5
15 1 12 -21 -3 -16 -9 -36 -13 -47 -6 -14 -5 -18 5 -14 8 2 21 26 31 54 16 47
17 48 24 22 4 -15 2 -41 -3 -58 -6 -16 -8 -30 -4 -30 15 0 45 44 45 67 0 12 3
23 7 23 17 0 18 -31 4 -66 -12 -28 -12 -35 -2 -32 7 3 20 24 29 47 13 37 17
40 29 26 11 -13 10 -22 -3 -55 -8 -22 -13 -40 -10 -40 11 0 42 46 43 63 0 17
25 24 34 9 3 -5 -6 -27 -19 -50 -15 -27 -19 -42 -12 -42 18 0 47 37 47 60 0
11 7 20 15 20 8 0 15 -7 15 -15 0 -23 -27 -72 -42 -78 -9 -3 -8 -7 4 -12 17
-7 56 20 45 31 -6 7 24 44 35 44 18 0 6 -31 -22 -60 -16 -17 -30 -32 -30 -34
0 -2 17 -14 37 -26 l38 -22 36 42 c26 30 38 38 42 27 3 -8 -9 -29 -30 -51 -29
-30 -32 -37 -19 -42 12 -4 27 6 50 32 26 30 34 34 39 21 4 -11 -6 -26 -31 -48
l-36 -32 30 -26 c61 -53 149 -215 187 -345 28 -96 31 -310 4 -406 -26 -97 -92
-223 -156 -299 -68 -81 -106 -116 -190 -169 -330 -214 -828 -110 -1047 218
-49 73 -91 161 -109 225 -9 33 -23 72 -31 87 -11 20 -13 56 -11 160 2 73 7
140 11 149 5 12 0 14 -26 12 -37 -4 -64 9 -54 26 5 8 17 7 40 -3 25 -10 37
-11 45 -3 19 19 12 27 -20 27 -38 0 -69 16 -69 35 0 19 15 19 45 -1 13 -9 29
-13 35 -9 5 3 10 0 10 -7 0 -9 3 -9 10 2 11 16 14 37 4 27 -11 -10 -77 19 -80
36 -3 22 20 22 57 0 20 -12 32 -14 39 -7 7 7 -2 14 -30 23 -43 13 -60 35 -42
53 7 7 17 4 33 -11 13 -11 29 -21 36 -21 7 0 16 0 20 -1 4 0 9 4 11 10 2 6 -3
11 -10 11 -24 0 -68 24 -68 38 0 26 -21 10 -39 -30 -74 -166 -97 -321 -78
-517 7 -65 6 -81 -4 -76 -7 5 -10 4 -5 -3 3 -6 -2 -13 -11 -15 -16 -4 -16 -5
-1 -6 10 -1 19 -13 23 -33 4 -18 11 -37 15 -43 4 -5 14 -30 21 -55 7 -25 15
-47 19 -50 24 -22 110 -184 110 -207 l-1 -28 -14 30 c-7 17 -14 24 -14 18 -1
-7 -10 -13 -21 -13 -15 0 -20 7 -20 29 0 38 -24 59 -38 34 -6 -10 -14 -14 -18
-10 -4 4 -2 13 4 19 15 15 16 45 1 54 -9 5 -41 -7 -88 -33 -2 -1 -1 -10 3 -19
6 -16 8 -15 20 2 19 25 29 13 17 -19 -8 -20 -5 -31 16 -58 14 -19 23 -26 20
-16 -8 21 2 49 14 41 6 -3 16 -1 23 5 11 9 12 3 5 -31 -4 -24 -8 -49 -9 -56 0
-7 -4 -10 -10 -7 -5 3 -10 1 -10 -5 0 -6 7 -13 15 -16 8 -4 12 -10 9 -15 -3
-5 3 -9 13 -9 11 0 24 -5 31 -12 9 -9 12 -9 12 3 1 10 3 9 11 -4 6 -9 15 -15
20 -12 5 4 7 11 4 16 -4 5 -1 9 4 9 11 0 16 -24 11 -45 -6 -22 0 -46 14 -61
25 -25 8 -36 -22 -15 -91 64 -245 275 -283 386 -8 22 -16 42 -19 45 -10 10
-40 103 -35 110 3 5 1 10 -5 12 -16 5 -40 187 -40 305 0 214 58 416 172 597
31 50 145 191 170 211 7 6 38 31 68 56 117 97 277 177 440 220 121 32 367 33
525 3 132 -26 334 -127 468 -235 89 -71 197 -195 197 -225 0 -10 3 -14 7 -11
16 17 100 -143 144 -275 17 -51 37 -129 45 -173 12 -75 13 -76 11 -24 -1 41 1
55 10 52 20 -8 28 -69 27 -213 -1 -141 -21 -264 -63 -384 -24 -69 -24 -66 -10
-66 5 0 8 4 5 9 -3 4 1 17 9 27 8 10 15 27 15 36 0 9 5 29 12 45 6 15 13 35
14 43 1 8 5 26 8 40 9 38 15 73 21 120 3 24 7 46 10 50 22 36 -14 348 -51 439
-8 18 -14 42 -14 52 0 11 -4 19 -10 19 -5 0 -9 3 -8 8 4 15 -27 98 -43 115 -9
9 -22 30 -30 45 -32 63 -129 183 -217 270 -52 50 -98 92 -102 92 -4 0 -35 19
-69 41 -34 23 -64 39 -67 36 -3 -3 9 -13 28 -23 62 -32 177 -125 249 -202 134
-143 242 -341 280 -512 5 -25 12 -54 15 -65 6 -18 5 -19 -10 -4 -10 9 -24 42
-32 74 -23 86 -70 199 -116 279 -225 388 -638 602 -1088 565z m608 -422 c-2
-23 -25 -57 -40 -57 -13 0 -9 27 7 40 8 7 15 21 15 32 0 10 4 17 9 13 6 -3 9
-15 9 -28z m142 -101 c0 -15 -57 -62 -65 -54 -6 5 47 68 58 68 4 0 7 -6 7 -14z
m15 -66 c-25 -27 -55 -40 -55 -25 0 11 55 54 69 55 10 0 4 -11 -14 -30z m55
-19 c0 -14 -50 -51 -69 -51 -11 0 -4 10 19 30 37 31 50 36 50 21z m76 -53 c14
-28 15 -31 2 -20 -14 11 -31 52 -22 52 2 0 11 -15 20 -32z m-46 7 c0 -16 -55
-48 -72 -43 -5 2 3 10 19 18 15 8 32 21 36 27 11 17 17 16 17 -2z m30 -53 c0
-7 -63 -42 -75 -42 -17 0 0 20 28 34 36 18 47 20 47 8z m75 -72 c28 -70 33
-111 10 -70 -8 14 -15 32 -15 40 0 8 -9 33 -20 55 -21 44 -26 65 -10 49 5 -5
21 -39 35 -74z m-61 10 c-5 -5 -25 -12 -44 -15 l-35 -5 40 19 c39 19 58 20 39
1z m7 -56 c-18 -8 -41 -13 -50 -11 -22 5 25 26 59 26 23 -1 22 -2 -9 -15z m43
-44 c-15 -13 -87 -23 -79 -10 3 5 11 8 16 5 5 -4 9 -2 9 2 0 13 54 31 59 20 2
-5 -1 -12 -5 -17z m-4 -58 c-25 -4 -35 2 -26 17 5 7 13 7 27 -2 20 -12 20 -12
-1 -15z m-43 2 c-3 -3 -12 -4 -19 -1 -8 3 -5 6 6 6 11 1 17 -2 13 -5z m127
-254 c-13 -443 -346 -817 -785 -881 -145 -21 -365 5 -477 57 -18 8 -45 21 -60
27 -48 22 -166 101 -154 105 6 2 30 -11 53 -27 23 -17 48 -31 56 -31 8 0 21
-6 29 -14 23 -23 50 -8 63 35 14 46 45 57 35 12 -4 -16 -13 -39 -21 -51 -8
-13 -12 -27 -8 -30 9 -10 35 28 42 61 7 32 31 37 27 5 -1 -13 -3 -29 -3 -36
-1 -7 -5 -10 -11 -7 -5 3 -10 1 -10 -4 0 -6 6 -11 13 -11 8 0 7 -3 -3 -10 -8
-5 -11 -12 -8 -16 15 -14 35 6 47 47 11 36 15 40 23 26 11 -21 1 -77 -15 -77
-26 0 11 -18 49 -25 37 -6 42 -4 47 15 3 12 4 34 2 51 -3 21 0 29 11 29 13 0
15 -11 12 -54 -3 -47 -1 -54 14 -53 14 1 18 10 17 37 -2 54 0 60 17 60 14 0
16 -9 12 -50 -4 -35 -2 -50 6 -47 6 2 11 25 11 50 0 38 3 47 18 47 14 0 17 -9
17 -50 0 -35 4 -50 13 -50 10 0 14 13 13 44 -1 43 8 66 20 53 4 -3 7 -27 8
-52 1 -47 9 -57 22 -27 11 25 11 34 2 60 -4 12 -4 22 0 22 20 -1 31 -20 34
-58 2 -23 4 -42 5 -42 19 0 29 16 25 40 -2 17 -8 27 -13 24 -5 -3 -9 6 -9 20
0 19 5 26 20 26 11 0 19 -3 19 -7 -1 -5 1 -27 6 -50 5 -27 12 -40 20 -37 9 4
10 15 4 42 -12 51 -11 62 5 62 8 0 18 -19 25 -45 9 -35 16 -45 31 -45 19 0 19
2 6 23 -18 28 -24 79 -10 84 6 2 17 -18 24 -44 16 -58 14 -55 32 -48 14 6 13
12 -3 55 -25 67 -5 78 23 12 13 -31 26 -48 34 -45 10 3 8 15 -7 50 -23 53 -23
53 -5 53 7 0 22 -20 33 -44 13 -32 23 -42 32 -37 10 6 8 17 -8 47 -12 21 -21
45 -21 52 0 25 24 6 46 -35 12 -24 26 -38 32 -34 7 4 3 21 -13 50 -29 50 -29
51 -11 51 8 0 25 -18 38 -39 15 -26 28 -37 36 -32 9 5 5 16 -13 41 -14 19 -25
40 -25 47 0 26 26 12 50 -27 17 -28 27 -36 36 -29 9 7 5 18 -17 42 -28 30 -38
57 -21 57 13 0 62 -55 62 -69 0 -11 3 -11 15 -1 13 11 11 18 -20 56 -46 55
-27 72 22 19 20 -22 38 -34 43 -29 6 6 -5 24 -25 46 -19 20 -35 39 -35 42 0
14 25 4 60 -24 50 -40 59 -25 13 22 -20 21 -34 40 -30 44 6 6 69 -34 75 -49 2
-4 10 -3 18 4 11 9 7 16 -26 40 -22 16 -40 34 -40 39 0 18 28 11 59 -16 17
-14 35 -22 41 -19 14 9 -5 32 -42 51 -16 8 -27 21 -25 27 5 15 37 10 52 -8 13
-16 43 -26 49 -16 3 5 -14 21 -39 36 -42 27 -50 45 -20 45 8 0 29 -9 47 -19
17 -11 36 -17 41 -14 5 3 -12 19 -37 35 -50 30 -55 56 -8 36 15 -7 33 -16 40
-22 8 -6 17 -5 24 2 8 8 -2 17 -36 33 -25 13 -45 28 -43 34 5 14 38 19 46 7 9
-14 61 -27 61 -14 0 5 -20 17 -45 26 -25 10 -45 22 -45 26 0 14 18 21 25 9 4
-5 14 -8 22 -5 9 4 22 1 29 -5 14 -12 34 -4 34 13 0 6 -3 9 -6 6 -8 -8 -94 22
-94 32 0 17 18 19 63 5 39 -12 47 -12 47 -1 0 8 -20 19 -44 25 -25 6 -47 15
-51 20 -9 16 13 22 34 9 14 -9 28 -9 47 -3 33 12 45 36 15 28 -31 -8 -93 6
-88 20 5 17 45 21 63 6 11 -9 18 -8 34 6 22 20 28 44 8 27 -19 -15 -92 0 -96
20 -3 14 2 15 39 7 29 -7 45 -6 55 2 24 19 16 24 -38 24 -43 0 -53 3 -56 18
-3 16 1 17 35 12 21 -4 45 -9 53 -11 11 -3 16 4 18 21 1 14 1 25 -1 25 -1 0
-18 -4 -37 -10 -39 -11 -70 -5 -70 14 0 7 14 12 38 12 45 0 62 9 62 32 0 12
-3 13 -12 4 -14 -14 -98 -16 -98 -2 0 6 5 11 10 11 6 1 15 3 20 4 6 1 26 3 45
4 32 1 35 4 36 34 1 22 5 12 14 -33 7 -36 11 -112 9 -170z m-55 211 c12 -8 10
-11 -10 -15 -30 -7 -69 -4 -69 5 0 4 12 10 28 12 15 2 29 5 32 5 3 1 12 -2 19
-7z m-1681 -21 c12 0 22 -5 22 -11 0 -16 -83 -7 -88 10 -4 10 1 12 19 8 13 -4
34 -7 47 -7z m11 -56 c13 -12 -19 -23 -52 -17 -55 9 -50 34 6 27 23 -4 44 -8
46 -10z m-11 -63 c4 -13 -3 -13 -47 -5 -17 4 -31 10 -31 14 0 11 74 3 78 -9z
m-18 -51 c0 -5 -11 -9 -25 -8 -14 1 -25 6 -25 10 0 4 11 8 25 8 14 0 25 -4 25
-10z m5 -51 c19 -9 19 -9 -1 -6 -12 3 -29 0 -38 -5 -16 -9 -23 2 -9 15 8 9 23
8 48 -4z m20 -49 c3 -5 1 -10 -4 -10 -6 0 -11 5 -11 10 0 6 2 10 4 10 3 0 8
-4 11 -10z m-35 -10 c-18 -12 -30 -13 -30 -2 0 4 10 9 22 9 18 2 20 0 8 -7z
m50 -38 c0 -5 -16 -14 -36 -20 -25 -7 -34 -7 -32 0 2 6 14 12 26 13 12 1 25 5
29 8 9 9 13 9 13 -1z m-53 -209 c-6 -5 -44 85 -52 122 -3 17 8 -3 25 -44 17
-41 29 -76 27 -78z m13 137 c0 -5 -5 -10 -11 -10 -5 0 -7 5 -4 10 3 6 8 10 11
10 2 0 4 -4 4 -10z m65 -30 c-3 -5 -11 -10 -16 -10 -6 0 -7 5 -4 10 3 6 11 10
16 10 6 0 7 -4 4 -10z m25 -38 c0 -13 -12 -22 -22 -16 -10 6 -1 24 13 24 5 0
9 -4 9 -8z m-341 -69 c55 -157 135 -287 254 -409 48 -51 65 -74 56 -80 -18
-10 -126 108 -196 214 -89 134 -180 342 -150 342 7 0 23 -30 36 -67z m293 50
c-6 -2 -10 -8 -7 -13 3 -4 -5 -6 -17 -2 -21 5 -21 6 -2 13 10 4 24 8 29 8 6
-1 4 -3 -3 -6z m1792 -28 c3 -9 0 -15 -9 -15 -9 0 -12 6 -9 15 4 8 7 15 9 15
2 0 5 -7 9 -15z m-1739 -12 c-19 -13 -31 -11 -21 5 3 5 13 9 22 9 15 0 15 -2
-1 -14z m-35 -13 c0 -5 -5 -10 -11 -10 -5 0 -7 5 -4 10 3 6 8 10 11 10 2 0 4
-4 4 -10z m80 -19 c0 -5 -7 -14 -15 -21 -8 -7 -15 -9 -15 -6 0 4 -7 0 -16 -8
-16 -17 -44 -22 -44 -8 0 7 67 49 83 51 4 1 7 -3 7 -8z m8 -60 c-7 -11 -15
-18 -19 -16 -3 3 -15 -2 -25 -10 -23 -17 -34 -19 -34 -5 0 6 11 15 24 20 13 5
27 14 31 19 3 6 13 11 21 11 12 0 12 -4 2 -19z m50 -33 c-2 -6 -13 -16 -24
-22 -10 -6 -21 -13 -24 -16 -3 -3 -14 -6 -25 -8 -17 -3 -15 1 10 27 30 29 70
42 63 19z m12 -59 c-12 -16 -25 -28 -28 -25 -3 3 -11 1 -18 -5 -8 -6 -14 -7
-18 0 -4 6 4 15 16 22 12 7 29 18 36 26 25 25 33 13 12 -18z m50 -8 c0 -5 -7
-14 -15 -21 -8 -7 -15 -20 -15 -29 0 -14 -2 -14 -10 -1 -8 13 -10 12 -10 -2 0
-10 -7 -18 -15 -18 -22 0 -18 11 18 46 33 33 47 40 47 25z m21 -59 c-6 -2 -9
-8 -5 -13 3 -5 -2 -12 -10 -15 -9 -3 -13 -10 -10 -15 3 -5 -4 -9 -15 -9 -29 0
-26 8 11 47 21 21 34 29 37 21 2 -6 -1 -14 -8 -16z m59 -14 c-1 -19 -36 -61
-53 -64 -19 -3 -12 18 17 51 23 27 36 32 36 13z m-212 -20 c-2 -7 2 -12 9 -13
6 0 22 -10 35 -23 52 -51 89 -82 98 -82 17 0 11 -34 -10 -58 -11 -13 -24 -21
-29 -17 -6 3 -13 -15 -17 -45 -5 -42 -9 -48 -21 -39 -11 10 -11 14 -1 21 9 7
10 11 2 14 -7 3 -9 14 -7 26 3 11 1 23 -6 27 -9 6 -8 11 4 21 12 10 15 10 15
-4 0 -13 4 -12 25 6 21 18 23 23 10 30 -8 5 -15 17 -15 27 0 14 -6 17 -25 13
-14 -2 -25 0 -25 7 0 5 8 8 18 5 12 -4 9 1 -8 16 -14 13 -26 17 -28 11 -2 -6
-8 -9 -13 -5 -5 3 -9 -2 -9 -10 0 -9 -4 -16 -10 -16 -16 0 -12 22 7 36 17 12
17 14 -4 32 -13 10 -20 22 -16 26 11 10 23 7 21 -6z m240 -33 c-6 -14 -15 -25
-20 -25 -5 0 -7 -4 -3 -9 3 -5 1 -12 -4 -15 -18 -12 -22 14 -6 44 20 38 51 43
33 5z m-315 -6 c-4 -15 -8 -17 -14 -8 -8 14 -3 29 11 29 4 0 6 -9 3 -21z m355
-34 c-9 -27 -20 -39 -35 -42 -21 -3 -33 11 -15 19 4 2 18 18 31 36 29 41 35
37 19 -13z m-155 20 c-3 -9 -8 -14 -10 -11 -3 3 -2 9 2 15 9 16 15 13 8 -4z
m201 -50 c-15 -42 -17 -44 -32 -28 -12 12 -13 18 -4 21 6 2 12 13 12 23 0 11
5 17 10 14 6 -3 10 -1 10 4 0 6 4 11 9 11 6 0 3 -20 -5 -45z m204 -56 c3 -38
-6 -71 -17 -64 -14 8 -12 95 2 95 7 0 14 -14 15 -31z m-323 -5 c11 -6 21 -24
23 -40 l3 -29 -20 33 c-12 17 -25 32 -31 32 -5 0 -10 8 -10 18 0 9 4 13 8 7 4
-5 16 -15 27 -21z m66 -48 c12 7 11 -7 -1 -26 -8 -13 -10 -12 -10 3 0 9 -5 17
-11 17 -5 0 -7 5 -3 12 6 9 9 9 12 0 2 -7 8 -10 13 -6z m49 -26 c0 -5 -2 -10
-4 -10 -3 0 -8 5 -11 10 -3 6 -1 10 4 10 6 0 11 -4 11 -10z m57 -10 c25 0 30
-19 11 -38 -17 -17 -28 -15 -21 6 3 9 3 14 -2 10 -4 -4 -14 0 -21 10 -17 21
-18 40 -2 24 7 -7 22 -12 35 -12z m73 -34 c0 -9 -7 -12 -20 -9 -11 3 -20 9
-20 14 0 5 9 9 20 9 11 0 20 -6 20 -14z m100 -10 c0 -2 -9 -6 -20 -9 -11 -3
-20 -1 -20 4 0 5 9 9 20 9 11 0 20 -2 20 -4z m164 -26 c7 -7 3 -10 -12 -10
-12 0 -22 -4 -22 -10 0 -5 -9 -1 -20 10 -27 27 -36 25 -45 -7 -7 -27 -7 -27
-15 -6 -6 15 -15 20 -30 16 -16 -4 -19 -2 -14 11 5 14 18 15 77 11 39 -3 76
-10 81 -15z m-321 -30 c-7 -8 -22 24 -16 34 4 5 10 1 13 -10 4 -10 6 -21 3
-24z m84 -22 c-6 -24 -13 -36 -15 -27 -3 15 14 69 22 69 2 0 -1 -19 -7 -42z
m243 18 c0 -15 -14 -35 -21 -30 -15 9 -10 34 6 34 8 0 15 -2 15 -4z m120 -32
c0 -31 -23 -28 -28 4 -2 15 2 22 12 22 11 0 16 -9 16 -26z m-132 -48 c3 -20 0
-27 -10 -24 -7 3 -14 17 -15 32 -3 37 21 29 25 -8z m27 -6 c3 -5 1 -10 -4 -10
-6 0 -11 5 -11 10 0 6 2 10 4 10 3 0 8 -4 11 -10z"/>
<path d="M2493 3653 c-10 -3 -10 -10 -2 -24 5 -11 14 -17 19 -14 4 3 10 2 12
-2 2 -5 15 -19 31 -32 25 -23 27 -23 26 -5 -1 23 -69 83 -86 77z"/>
<path d="M2566 3635 c4 -8 7 -15 9 -15 2 0 5 7 9 15 3 9 0 15 -9 15 -9 0 -12
-6 -9 -15z"/>
<path d="M2389 3621 c10 -6 12 -20 8 -45 -7 -42 -3 -45 18 -12 19 29 6 66 -23
66 -14 0 -14 -2 -3 -9z"/>
<path d="M2700 3614 c-10 -11 -11 -23 -4 -42 8 -22 17 -28 47 -30 20 -2 37 1
37 5 0 5 -12 9 -27 8 -23 0 -28 5 -29 25 -1 14 3 31 8 38 8 8 6 12 -5 12 -8 0
-20 -7 -27 -16z"/>
<path d="M2766 3605 c17 -26 37 -24 32 2 -2 9 -13 18 -26 19 -22 4 -22 3 -6
-21z"/>
<path d="M3075 3620 c3 -5 16 -15 28 -21 l22 -11 -22 21 c-23 22 -39 28 -28
11z"/>
<path d="M2320 3601 c-13 -26 -13 -31 4 -31 7 0 16 11 18 25 6 30 -7 33 -22 6z"/>
<path d="M2848 3565 c-16 -43 -16 -45 2 -55 26 -14 33 -13 26 5 -7 20 0 19 23
-4 11 -11 16 -23 13 -27 -4 -4 -1 -4 6 0 6 4 12 16 12 27 0 10 6 28 13 39 10
17 9 22 -3 30 -22 14 -31 12 -28 -6 2 -10 -3 -19 -11 -22 -10 -3 -11 2 -6 18
5 15 2 26 -6 31 -22 14 -24 12 -41 -36z"/>
<path d="M2231 3579 c9 -17 13 -19 19 -8 11 16 4 29 -16 29 -12 0 -13 -4 -3
-21z"/>
<path d="M2160 3571 c0 -6 5 -13 10 -16 6 -3 10 1 10 9 0 9 -4 16 -10 16 -5 0
-10 -4 -10 -9z"/>
<path d="M2485 3570 c-3 -5 3 -10 15 -10 12 0 18 5 15 10 -3 6 -10 10 -15 10
-5 0 -12 -4 -15 -10z"/>
<path d="M2345 3550 c3 -5 8 -10 11 -10 2 0 4 5 4 10 0 6 -5 10 -11 10 -5 0
-7 -4 -4 -10z"/>
<path d="M2234 3535 c11 -8 27 -15 35 -15 11 0 10 4 -5 15 -10 8 -26 14 -34
14 -11 0 -10 -3 4 -14z"/>
<path d="M3024 3512 c3 -24 2 -43 -4 -47 -5 -3 -10 -11 -10 -17 0 -7 6 -6 15
2 8 7 15 25 15 40 0 16 6 30 12 32 8 3 3 10 -11 17 -24 13 -24 13 -17 -27z"/>
<path d="M2078 3533 c7 -3 16 -2 19 1 4 3 -2 6 -13 5 -11 0 -14 -3 -6 -6z"/>
<path d="M2050 3501 c5 -11 15 -23 20 -26 14 -9 12 19 -2 33 -19 19 -30 14
-18 -7z"/>
<path d="M3080 3500 c0 -5 7 -10 15 -10 8 0 15 5 15 10 0 6 -7 10 -15 10 -8 0
-15 -4 -15 -10z"/>
<path d="M3146 3423 c-38 -47 -24 -55 18 -10 20 22 28 38 21 41 -6 2 -24 -12
-39 -31z"/>
<path d="M2225 3405 c-33 -14 -61 -25 -62 -25 -12 0 1 -20 12 -20 8 0 15 -5
15 -11 0 -5 5 -7 10 -4 6 4 9 14 8 23 -2 13 5 17 27 17 17 0 35 3 42 8 7 4 13
0 15 -10 3 -11 6 -5 9 15 7 39 2 39 -76 7z"/>
<path d="M3202 3416 c2 -8 -1 -14 -7 -13 -5 1 -9 6 -7 10 1 5 -2 6 -8 2 -20
-12 -10 -35 15 -35 24 0 51 31 38 44 -12 12 -34 6 -31 -8z"/>
<path d="M1885 3410 c-3 -5 -1 -10 4 -10 6 0 11 5 11 10 0 6 -2 10 -4 10 -3 0
-8 -4 -11 -10z"/>
<path d="M2350 3370 c0 -5 5 -10 11 -10 5 0 7 5 4 10 -3 6 -8 10 -11 10 -2 0
-4 -4 -4 -10z"/>
<path d="M2130 3360 c-9 -6 -10 -10 -3 -10 6 0 15 5 18 10 8 12 4 12 -15 0z"/>
<path d="M3273 3363 c-21 -8 -15 -22 7 -16 11 3 20 9 20 14 0 10 -8 10 -27 2z"/>
<path d="M3305 3341 c-3 -6 -11 -9 -16 -5 -5 3 -9 2 -8 -3 4 -21 -3 -32 -22
-38 -15 -5 -17 -10 -9 -20 9 -11 18 -6 47 23 19 20 33 30 30 22 -2 -8 -1 -24
3 -35 7 -19 7 -19 18 1 9 18 7 25 -12 43 -16 15 -26 19 -31 12z"/>
<path d="M2034 3302 c-62 -46 -101 -82 -87 -82 6 0 16 6 22 14 13 15 28 16 49
2 11 -7 12 -4 3 12 -9 17 -8 23 8 31 10 6 22 7 26 3 5 -4 5 -1 1 6 -4 7 -2 12
6 12 7 0 19 9 26 20 17 28 4 24 -54 -18z"/>
<path d="M2150 3313 c1 -23 26 -51 39 -44 10 7 9 12 -8 23 -11 8 -18 18 -14
21 3 4 1 7 -5 7 -7 0 -12 -3 -12 -7z"/>
<path d="M1771 3307 c2 -1 13 -9 24 -17 19 -14 19 -14 6 3 -7 9 -18 17 -24 17
-6 0 -8 -1 -6 -3z"/>
<path d="M1823 3255 c0 -8 4 -12 9 -9 5 3 6 10 3 15 -9 13 -12 11 -12 -6z"/>
<path d="M2445 3256 c-144 -31 -181 -49 -121 -59 18 -3 52 -14 74 -25 34 -16
49 -18 94 -10 127 21 304 -23 417 -106 32 -24 62 -36 101 -41 30 -4 65 -11 78
-16 13 -5 22 -5 22 1 0 5 -10 12 -22 16 -13 4 -28 14 -35 23 -8 10 -12 12 -13
4 0 -7 -4 -13 -10 -13 -5 0 -7 7 -3 16 6 17 -12 34 -36 34 -9 0 -12 -8 -9 -25
7 -32 -1 -31 -44 3 -28 22 -33 30 -22 40 8 7 15 8 19 2 9 -15 35 -12 35 4 0
16 -42 46 -65 46 -8 0 -15 5 -15 10 0 6 -5 10 -11 10 -6 0 -17 7 -26 16 -9 8
-21 13 -28 10 -8 -3 -16 1 -18 8 -3 7 -36 23 -74 35 -83 28 -205 35 -288 17z"/>
<path d="M3356 3224 c-16 -16 -22 -54 -8 -54 4 0 12 10 17 23 6 12 20 23 33
25 12 2 20 8 17 13 -9 14 -42 11 -59 -7z"/>
<path d="M3431 3197 c0 -10 -14 -26 -31 -35 -36 -21 -39 -31 -5 -25 32 7 48
26 42 55 -3 16 -5 17 -6 5z"/>
<path d="M1705 3193 c-16 -3 -34 -8 -38 -13 -12 -11 86 0 98 11 9 9 -5 10 -60
2z"/>
<path d="M1898 3183 c-10 -13 -10 -15 0 -9 8 5 25 -5 47 -28 19 -20 36 -32 39
-28 3 4 -13 24 -34 44 -35 33 -40 35 -52 21z"/>
<path d="M1997 3159 c7 -7 15 -10 18 -7 3 3 -2 9 -12 12 -14 6 -15 5 -6 -5z"/>
<path d="M1848 3126 c-30 -37 -37 -56 -14 -37 10 9 16 8 26 -4 7 -8 18 -15 24
-15 6 0 3 5 -6 11 -20 11 -24 44 -8 54 6 3 25 -10 44 -29 18 -20 36 -33 39
-30 4 4 -69 84 -77 84 -1 0 -13 -16 -28 -34z"/>
<path d="M2192 3139 c-82 -16 -165 -91 -191 -170 -15 -45 -15 -133 -2 -178 38
-125 183 -209 313 -181 62 13 106 39 147 86 41 46 79 137 51 119 -5 -3 -10 -1
-10 5 0 6 -4 8 -10 5 -5 -3 -10 -1 -10 4 0 6 7 11 16 11 11 0 14 6 9 20 -3 11
-2 20 4 20 17 0 0 91 -24 130 -27 43 -97 102 -140 118 -44 17 -104 21 -153 11z
m266 -174 c-3 -3 -9 2 -12 12 -6 14 -5 15 5 6 7 -7 10 -15 7 -18z m52 -169 c0
-3 -4 -8 -10 -11 -5 -3 -10 -1 -10 4 0 6 5 11 10 11 6 0 10 -2 10 -4z m-120
-134 c0 -15 -11 -21 -27 -15 -12 5 -12 7 -1 14 17 11 28 11 28 1z"/>
<path d="M3450 3111 c0 -5 5 -13 10 -16 6 -3 10 -2 10 4 0 5 -4 13 -10 16 -5
3 -10 2 -10 -4z"/>
<path d="M1797 3056 c-4 -10 -1 -13 8 -9 8 3 29 -7 46 -21 17 -14 35 -26 41
-26 5 0 -11 16 -36 35 -53 40 -52 40 -59 21z"/>
<path d="M3508 3029 c-9 -10 -12 -19 -7 -21 6 -2 3 -19 -6 -42 -9 -21 -15 -40
-13 -42 7 -6 48 8 48 17 0 5 9 9 20 9 21 0 27 15 10 25 -5 3 -10 1 -10 -4 0
-6 -6 -11 -14 -11 -12 0 -12 6 -3 35 13 42 0 60 -25 34z"/>
<path d="M1767 3013 c-13 -12 -7 -25 6 -14 8 6 17 8 20 4 4 -3 7 -1 7 5 0 13
-22 16 -33 5z"/>
<path d="M3450 3000 c0 -11 6 -20 13 -20 8 0 14 7 14 15 0 8 -6 16 -14 19 -8
3 -13 -2 -13 -14z"/>
<path d="M1570 3006 c0 -2 15 -6 34 -8 19 -2 32 0 30 4 -5 8 -64 12 -64 4z"/>
<path d="M1833 2965 c-4 -5 -3 -7 2 -3 4 4 14 3 20 -2 9 -7 14 -7 18 3 6 15
-32 18 -40 2z"/>
<path d="M1550 2959 c0 -27 61 -51 74 -30 4 5 -3 7 -13 4 -11 -3 -28 4 -40 16
-12 12 -21 16 -21 10z"/>
<path d="M2880 2944 c-19 -8 -36 -17 -39 -19 -2 -3 16 -26 41 -52 93 -100 135
-214 125 -338 -4 -38 -9 -80 -13 -92 -6 -21 -3 -23 27 -23 76 1 167 69 209
156 24 49 28 127 10 194 -16 61 -102 145 -164 161 -26 6 -49 15 -52 20 -8 14
-106 10 -144 -7z m82 -7 c-25 -6 -41 -15 -39 -21 3 -7 -1 -20 -9 -31 -13 -18
-14 -17 -14 11 0 22 -3 25 -10 14 -7 -11 -12 -12 -21 -3 -17 17 37 41 91 41
l45 0 -43 -11z m18 -42 c10 -12 10 -15 -4 -15 -9 0 -16 7 -16 15 0 8 2 15 4
15 2 0 9 -7 16 -15z"/>
<path d="M2584 2867 c-2 -175 -142 -314 -323 -320 -82 -2 -83 -4 -55 -97 44
-150 181 -258 338 -268 95 -6 161 10 236 58 105 69 170 189 170 317 0 66 -20
133 -41 133 -6 0 -9 7 -5 15 5 14 -25 69 -55 97 -20 19 -69 19 -69 0 0 -8 -3
-13 -6 -9 -4 3 -15 -4 -25 -16 -10 -12 -18 -18 -19 -13 0 5 -7 3 -16 -5 -14
-11 -15 -9 -11 20 5 26 2 32 -11 29 -9 -2 -16 -11 -16 -21 2 -15 -21 -23 -50
-18 -5 1 -13 -4 -17 -10 -5 -9 -10 -4 -15 15 -4 17 -2 32 6 39 10 9 11 9 5 -2
-4 -8 -2 -17 6 -22 22 -14 33 -10 19 6 -11 13 -8 15 13 15 14 0 29 5 32 10 3
6 2 10 -2 10 -5 0 -9 9 -10 20 -2 18 8 25 30 21 4 0 7 5 7 12 0 8 4 7 10 -3 8
-13 10 -12 10 3 0 20 -45 24 -54 5 -3 -7 -3 -3 -1 8 4 14 0 24 -11 28 -22 8
-34 -1 -34 -26 0 -35 -15 -8 -19 35 -1 4 -4 7 -8 7 -5 0 -8 -33 -9 -73z m66
-33 c0 -2 -7 -4 -15 -4 -8 0 -15 4 -15 10 0 5 7 7 15 4 8 -4 15 -8 15 -10z
m-56 -93 c3 -4 -6 -18 -19 -31 l-24 -23 12 32 c11 31 21 38 31 22z m266 -47
c0 -8 -5 -12 -10 -9 -6 4 -8 11 -5 16 9 14 15 11 15 -7z m-223 -24 c-3 -11 0
-20 6 -20 6 0 8 -2 5 -5 -8 -8 -38 6 -38 17 0 5 5 6 10 3 6 -3 10 1 10 9 0 9
3 16 6 16 4 0 4 -9 1 -20z m-77 6 c0 -2 -7 -7 -16 -10 -8 -3 -12 -2 -9 4 6 10
25 14 25 6z m107 -102 c-3 -3 -12 -4 -19 -1 -8 3 -5 6 6 6 11 1 17 -2 13 -5z
m73 -73 c0 -11 -5 -10 -20 4 -20 18 -26 46 -13 59 8 8 32 -38 33 -63z m-35 -1
c3 -5 1 -10 -4 -10 -6 0 -11 5 -11 10 0 6 2 10 4 10 3 0 8 -4 11 -10z"/>
<path d="M3576 2884 c-11 -8 -32 -14 -48 -14 -32 0 -32 -2 -15 -53 16 -44 37
-69 44 -50 2 7 11 9 19 6 8 -3 14 -1 14 5 0 6 9 8 20 5 16 -4 20 0 20 19 0 14
-3 28 -7 32 -4 3 -8 16 -10 29 -5 32 -15 38 -37 21z"/>
<path d="M1510 2860 c0 -5 7 -7 15 -4 8 4 15 8 15 10 0 2 -7 4 -15 4 -8 0 -15
-4 -15 -10z"/>
<path d="M2735 2850 c4 -6 11 -8 16 -5 14 9 11 15 -7 15 -8 0 -12 -5 -9 -10z"/>
<path d="M2770 2845 c0 -9 9 -15 21 -15 18 0 19 2 5 15 -8 8 -17 15 -20 15 -3
0 -6 -7 -6 -15z"/>
<path d="M1912 2826 c-46 -103 -60 -302 -29 -426 28 -108 90 -220 172 -307 67
-72 101 -92 76 -46 -5 11 -13 44 -17 74 -4 35 -16 66 -33 89 -90 119 -134 288
-112 430 7 43 6 61 -7 85 -9 17 -21 52 -27 79 -11 47 -11 47 -23 22z"/>
<path d="M1500 2815 c-13 -34 -13 -32 10 -38 16 -4 18 -2 10 13 -6 10 -10 21
-10 24 0 10 36 6 47 -5 7 -7 17 -8 28 -2 15 9 13 11 -11 16 -16 3 -37 9 -46
12 -13 5 -20 0 -28 -20z"/>
<path d="M2698 2823 c7 -3 16 -2 19 1 4 3 -2 6 -13 5 -11 0 -14 -3 -6 -6z"/>
<path d="M1487 2713 c-14 -13 -6 -33 13 -33 11 0 20 -5 20 -11 0 -7 -10 -9
-25 -5 -21 5 -25 3 -25 -17 0 -14 6 -24 15 -24 8 0 12 4 9 9 -3 4 5 8 18 8 18
0 20 -2 8 -10 -13 -8 -13 -10 2 -10 9 0 23 -3 32 -6 12 -5 16 0 16 20 0 20 -5
26 -21 26 -12 0 -19 5 -16 13 10 28 -26 60 -46 40z"/>
<path d="M3686 2635 c-3 -8 -1 -25 4 -37 8 -20 9 -18 9 15 1 39 -3 47 -13 22z"/>
<path d="M1472 2550 c2 -18 8 -24 23 -22 19 2 19 1 -2 -17 -26 -22 -30 -51 -7
-51 8 0 13 4 9 9 -9 15 28 31 46 20 23 -15 29 -11 29 21 0 28 -2 30 -26 24
-19 -5 -32 0 -51 17 l-25 24 4 -25z"/>
<path d="M1370 2538 c0 -7 5 -20 10 -28 8 -11 9 -9 8 13 -2 26 -18 40 -18 15z"/>
<path d="M3228 2482 c-7 -10 -31 -33 -54 -50 -27 -22 -46 -48 -55 -75 -21 -63
-99 -176 -159 -230 -56 -50 -156 -111 -202 -122 -16 -4 -28 -11 -28 -17 0 -5
-23 -32 -51 -59 -28 -28 -50 -52 -47 -54 10 -10 160 30 223 59 130 61 233 155
309 280 48 79 110 286 86 286 -5 0 -15 -8 -22 -18z"/>
<path d="M1557 2396 c-5 -11 -15 -14 -36 -10 -24 5 -30 2 -36 -15 -7 -24 0
-55 22 -90 12 -19 17 -21 24 -10 5 9 25 14 55 13 39 -1 44 1 31 11 -10 7 -17
19 -17 27 0 8 -3 18 -7 22 -5 4 -8 19 -8 33 0 29 -19 42 -28 19z m-32 -64 c-8
-9 -25 20 -18 31 3 5 10 2 15 -7 6 -10 7 -20 3 -24z"/>
<path d="M2193 2267 c-27 -49 -25 -189 4 -243 26 -50 90 -108 140 -129 57 -25
158 -24 214 2 84 38 145 118 157 206 l5 40 -34 -7 c-181 -37 -320 1 -428 119
l-41 44 -17 -32z"/>
<path d="M1580 2244 c0 -3 10 -14 23 -25 22 -19 22 -19 3 -34 -11 -8 -28 -15
-39 -15 -15 0 -17 6 -13 30 3 21 0 30 -9 30 -10 0 -12 -10 -8 -37 7 -46 6 -45
37 -45 14 0 23 -4 20 -9 -3 -5 -1 -9 5 -9 5 0 17 -3 27 -7 10 -4 15 -2 11 3
-3 6 -2 26 2 46 7 31 5 40 -13 57 -21 20 -46 28 -46 15z"/>
<path d="M3420 2129 c0 -5 5 -7 10 -4 6 3 10 8 10 11 0 2 -4 4 -10 4 -5 0 -10
-5 -10 -11z"/>
<path d="M1690 2101 c0 -6 5 -13 10 -16 6 -3 10 1 10 9 0 9 -4 16 -10 16 -5 0
-10 -4 -10 -9z"/>
<path d="M3623 2073 c-3 -10 -8 -22 -10 -28 -3 -5 3 -1 11 9 16 20 21 36 11
36 -3 0 -8 -8 -12 -17z"/>
<path d="M3575 1979 c-4 -6 -5 -12 -2 -15 2 -3 7 2 10 11 7 17 1 20 -8 4z"/>
<path d="M1763 1965 c0 -8 4 -15 9 -15 4 0 8 7 8 15 0 8 -4 15 -8 15 -5 0 -9
-7 -9 -15z"/>
<path d="M2136 1942 c-3 -6 1 -13 10 -16 23 -9 28 -2 10 13 -8 7 -17 8 -20 3z"/>
<path d="M3329 1929 c-13 -11 -18 -17 -11 -14 20 10 62 -15 62 -37 0 -13 -8
-18 -27 -18 -25 0 -26 -1 -11 -16 15 -16 18 -15 42 12 29 34 32 56 10 78 -21
21 -37 20 -65 -5z"/>
<path d="M3543 1928 c-20 -26 -26 -41 -15 -34 12 7 36 46 29 46 -3 0 -9 -6
-14 -12z"/>
<path d="M3311 1884 c0 -11 3 -14 6 -6 3 7 2 16 -1 19 -3 4 -6 -2 -5 -13z"/>
<path d="M2280 1860 c0 -5 5 -10 11 -10 5 0 7 5 4 10 -3 6 -8 10 -11 10 -2 0
-4 -4 -4 -10z"/>
<path d="M3234 1834 c-13 -11 -15 -17 -6 -20 22 -10 13 -25 -11 -19 -29 8 -57
-19 -31 -29 9 -3 20 -3 26 0 6 4 8 -1 4 -14 -10 -30 22 -37 56 -12 15 11 32
20 38 20 5 0 10 7 10 15 0 8 -6 15 -12 15 -7 0 -22 14 -34 30 -19 28 -22 29
-40 14z m38 -76 c-12 -12 -35 -1 -27 12 3 5 13 6 21 3 10 -4 12 -9 6 -15z"/>
<path d="M3078 1717 c-15 -12 -15 -14 3 -26 15 -8 19 -21 17 -43 -2 -20 2 -33
11 -36 10 -3 12 2 7 22 -6 25 6 36 19 16 4 -6 13 -5 25 3 24 14 26 27 5 27 -9
0 -27 11 -41 25 -29 29 -24 28 -46 12z"/>
<path d="M2971 1657 c-8 -10 -7 -19 4 -33 8 -10 15 -29 15 -41 0 -26 5 -28 24
-11 11 11 11 20 -3 55 -16 46 -22 50 -40 30z"/>
<path d="M2803 1602 c-10 -6 -10 -12 2 -28 8 -10 15 -28 15 -38 0 -18 -1 -18
-20 -1 -19 17 -20 17 -20 -1 1 -54 43 -65 89 -24 25 24 30 33 22 47 -9 17 -10
17 -16 1 -12 -31 -27 -19 -23 17 3 30 1 35 -17 35 -11 0 -26 -4 -32 -8z"/>
<path d="M2942 1597 c-17 -20 -7 -37 21 -37 13 0 17 3 11 8 -7 4 -13 16 -15
26 -4 17 -5 18 -17 3z"/>
<path d="M3157 1553 c-12 -12 -7 -22 8 -17 8 4 15 10 15 15 0 11 -14 12 -23 2z"/>
</g>
</svg>
