<?xml version="1.0" standalone="no"?>
<!DOCTYPE svg PUBLIC "-//W3C//DTD SVG 20010904//EN"
 "http://www.w3.org/TR/2001/REC-SVG-20010904/DTD/svg10.dtd">
<svg version="1.0" xmlns="http://www.w3.org/2000/svg"
 width="400.000000pt" height="400.000000pt" viewBox="0 0 400.000000 400.000000"
 preserveAspectRatio="xMidYMid meet">

<g transform="translate(0.000000,400.000000) scale(0.100000,-0.100000)"
fill="#000000" stroke="none">
<path d="M0 2000 l0 -2000 2000 0 2000 0 0 2000 0 2000 -2000 0 -2000 0 0
-2000z m1520 1844 c63 -19 155 -59 191 -85 19 -13 36 -17 61 -13 69 12 138
-47 138 -116 0 -35 -28 -79 -62 -96 -72 -38 -168 14 -168 91 0 33 -3 36 -85
75 -233 113 -348 31 -347 -249 1 -159 40 -340 122 -561 56 -153 64 -170 71
-170 4 0 28 39 54 88 182 336 492 721 717 890 235 177 438 210 561 94 59 -56
106 -192 107 -306 0 -37 6 -55 25 -78 49 -58 21 -157 -50 -177 -65 -18 -137
21 -150 80 -9 39 11 94 42 119 25 19 26 23 20 95 -7 95 -42 176 -89 205 -50
31 -142 24 -232 -18 -140 -66 -274 -175 -430 -352 -182 -206 -291 -364 -442
-636 l-76 -139 73 -145 c41 -80 76 -147 79 -150 3 -3 27 -37 54 -77 l48 -72
62 -6 c69 -8 525 0 534 9 3 3 22 6 42 6 61 0 316 49 443 86 205 59 344 127
433 214 94 91 97 171 8 269 -127 141 -525 268 -943 302 -133 11 -155 10 -165
-2 -50 -67 -159 -62 -197 8 -16 29 -15 83 1 112 14 28 68 61 98 61 27 0 73
-22 91 -43 8 -10 42 -17 104 -22 146 -11 431 -53 537 -80 176 -45 354 -116
444 -177 87 -59 171 -163 159 -194 -4 -12 -3 -15 5 -10 15 9 15 1 1 -25 -6
-13 -7 -25 -1 -32 5 -7 12 -30 16 -52 l7 -40 -15 30 c-33 68 -56 125 -56 139
0 20 -17 29 -26 15 -4 -8 -3 -9 4 -5 8 5 12 -1 12 -14 0 -12 -4 -18 -11 -15
-5 4 4 -17 20 -47 17 -30 31 -62 31 -71 0 -9 4 -17 8 -17 5 0 9 -16 10 -36 1
-31 -1 -34 -13 -24 -9 8 -15 8 -15 2 0 -6 -3 -19 -7 -29 -6 -16 -5 -17 13 -4
10 8 8 3 -6 -11 -14 -14 -29 -25 -35 -24 -5 0 -9 -7 -9 -16 1 -10 -4 -14 -12
-11 -8 3 -14 8 -14 13 0 11 36 41 43 34 3 -3 3 4 0 17 -4 15 -3 20 5 15 16
-10 15 5 -2 26 -12 17 -14 17 -32 -3 -10 -12 -18 -23 -16 -25 6 -10 1 -25 -7
-19 -5 3 -13 0 -17 -6 -4 -8 -3 -9 4 -5 17 10 15 -9 -1 -23 -8 -6 -18 -7 -22
-3 -5 4 -4 1 0 -7 6 -11 4 -13 -10 -7 -15 5 -16 4 -5 -9 11 -13 14 -12 29 5
16 20 16 20 27 -4 10 -22 8 -28 -14 -48 -14 -13 -22 -16 -18 -8 4 8 -1 5 -12
-8 -13 -14 -26 -20 -37 -16 -10 4 -15 2 -13 -6 4 -17 -79 -67 -170 -102 -128
-49 -198 -69 -401 -114 -103 -23 -348 -45 -556 -51 -132 -3 -242 -7 -243 -9
-2 -1 26 -39 62 -83 70 -87 96 -129 89 -148 -2 -6 0 -14 5 -17 13 -8 2 -67
-12 -59 -12 7 23 -38 39 -49 5 -4 13 -4 19 -1 5 4 6 1 1 -6 -4 -7 3 -23 16
-39 l24 -26 -30 24 c-56 46 -212 220 -286 319 l-73 99 -76 7 c-41 4 -126 15
-189 26 -86 14 -116 16 -122 8 -4 -7 -17 -60 -30 -118 -18 -82 -23 -138 -24
-246 0 -156 9 -196 57 -251 56 -63 140 -66 270 -7 48 21 58 30 58 51 0 65 73
122 139 107 36 -8 79 -49 88 -83 18 -75 -45 -147 -122 -139 -29 3 -54 -3 -90
-21 -122 -60 -227 -77 -319 -50 -66 20 -138 99 -167 183 -34 98 -33 310 1 465
12 58 25 114 27 125 4 19 -6 24 -87 48 -255 77 -442 195 -508 322 -37 71 -37
160 0 231 34 64 101 132 179 180 45 28 64 47 78 80 35 78 122 96 182 38 57
-55 43 -146 -28 -179 -30 -15 -42 -15 -79 -5 -39 11 -46 10 -81 -11 -97 -58
-173 -153 -173 -217 0 -84 89 -176 247 -255 53 -27 302 -113 307 -106 1 2 19
51 40 109 21 58 53 138 71 177 l34 73 -41 92 c-205 469 -257 893 -133 1076 26
38 86 84 130 100 45 16 125 14 185 -4z m645 -979 c94 -47 144 -110 171 -214
19 -76 13 -133 -22 -208 -89 -187 -355 -231 -504 -82 -141 141 -112 386 58
491 87 53 205 59 297 13z m1265 -235 c0 -5 -4 -10 -10 -10 -5 0 -10 5 -10 10
0 6 5 10 10 10 6 0 10 -4 10 -10z m-80 -144 c0 -3 -4 -8 -10 -11 -5 -3 -10 -1
-10 4 0 6 5 11 10 11 6 0 10 -2 10 -4z m-28 -56 c-22 -26 -24 -25 -10 5 6 13
15 22 19 19 5 -2 1 -14 -9 -24z m-431 -449 c16 -16 29 -35 29 -43 0 -23 -17
-40 -36 -36 -11 2 -24 -3 -31 -12 -11 -13 -12 -11 -13 14 0 25 -3 27 -24 22
-14 -3 -28 -1 -31 4 -5 8 -12 7 -23 -2 -12 -10 -14 -10 -8 0 4 6 2 12 -4 12
-6 0 -15 -11 -21 -24 -9 -19 -8 -31 5 -57 19 -38 20 -42 5 -33 -24 14 -38 70
-28 107 22 79 122 105 180 48z m-121 -80 c0 -6 -4 -13 -10 -16 -5 -3 -10 1
-10 9 0 9 5 16 10 16 6 0 10 -4 10 -9z m17 -13 c-3 -8 -6 -5 -6 6 -1 11 2 17
5 13 3 -3 4 -12 1 -19z m3 -115 c0 -13 6 -26 13 -29 8 -3 11 -17 9 -39 -5 -42
2 -44 22 -7 l15 27 1 -37 c0 -20 5 -40 10 -43 29 -18 -4 -159 -54 -232 -69
-101 -205 -128 -353 -70 -69 27 -123 65 -123 86 0 6 6 8 13 5 8 -3 14 2 14 10
0 13 -5 13 -34 1 -37 -16 -40 -14 -17 9 14 15 13 16 -7 16 -18 0 -19 2 -9 15
10 12 10 15 -1 15 -8 0 -20 9 -27 20 -23 37 10 33 79 -8 110 -67 193 -95 266
-90 71 4 100 25 135 92 27 53 45 200 31 260 -9 39 -8 44 3 35 8 -6 14 -22 14
-36z m-575 -183 c3 -5 1 -10 -4 -10 -6 0 -11 5 -11 10 0 6 2 10 4 10 3 0 8 -4
11 -10z m39 -31 c-8 -14 -24 -10 -24 6 0 9 6 12 15 9 8 -4 12 -10 9 -15z m787
-599 c81 -23 149 -101 149 -172 l0 -28 -94 0 -93 0 -7 40 c-5 34 -10 40 -31
40 -21 0 -26 -6 -31 -41 l-7 -41 -63 4 c-41 2 -69 10 -82 21 -19 17 -20 17
-27 -5 l-8 -23 -4 24 c-7 33 22 102 55 134 52 50 158 71 243 47z m-2507 -173
l54 -162 1 163 1 162 85 0 85 0 0 -380 0 -381 -87 3 -88 3 -50 165 -50 165 -3
-168 -2 -168 -83 3 -82 3 -3 370 c-1 203 -1 374 2 380 2 6 36 9 84 7 l81 -3
55 -162z m906 -157 c3 -202 9 -325 15 -327 6 -1 17 2 25 7 13 8 15 58 18 327
l3 318 95 -3 95 -3 -3 -328 -3 -328 -29 -37 c-63 -83 -205 -105 -314 -49 -98
49 -97 45 -100 420 l-3 322 88 3 c48 2 93 3 98 3 6 -1 12 -121 15 -325z m585
310 c-17 -7 -16 -9 9 -9 29 -1 29 -1 10 -22 -16 -17 -16 -22 -4 -30 13 -8 13
-10 0 -19 -13 -9 -13 -10 0 -11 9 0 7 -4 -7 -11 -21 -10 -22 -12 -5 -24 10 -8
12 -13 5 -14 -15 0 -17 -36 -3 -45 6 -3 10 -14 10 -23 0 -12 -3 -13 -8 -5 -5
7 -13 9 -21 4 -11 -7 -9 -10 8 -16 16 -5 21 -14 21 -40 0 -18 -6 -36 -12 -39
-10 -5 -10 -7 0 -12 19 -9 14 -34 -8 -34 -11 0 -20 -5 -20 -11 0 -6 -9 -8 -20
-4 -29 9 -25 -8 5 -22 19 -8 25 -8 25 0 0 7 7 -1 15 -17 12 -22 13 -37 5 -65
-6 -24 -6 -37 0 -39 14 -5 12 -39 -2 -46 -10 -5 -10 -7 0 -12 20 -9 14 -24
-11 -24 -14 0 -24 -6 -24 -14 0 -8 6 -12 13 -9 7 2 17 -5 23 -16 15 -28 14
-31 -11 -31 -21 -1 -22 -2 -5 -14 10 -8 15 -20 11 -30 -4 -10 -1 -16 7 -16 7
0 10 -3 6 -6 -3 -4 -39 -8 -79 -11 -40 -2 -79 -6 -85 -8 -10 -3 -13 64 -15
303 l-3 307 -57 -2 -58 -2 0 77 0 77 152 -3 c94 -3 145 -7 133 -12z m-855 -65
l0 -75 -65 0 -65 0 0 -70 0 -70 60 0 60 0 0 -75 0 -75 -60 0 -60 0 0 -85 0
-85 70 0 70 0 0 -75 0 -75 -170 0 -170 0 0 380 0 380 165 0 165 0 0 -75z
m1057 -47 c-2 -24 -4 -5 -4 42 0 47 2 66 4 43 2 -24 2 -62 0 -85z m1240 27
l31 -95 -114 0 -114 0 0 95 0 95 83 0 83 0 31 -95z m243 -14 l0 -110 -27 15
c-16 7 -52 14 -80 14 l-53 0 0 95 0 95 80 0 80 0 0 -109z m-9 -160 c15 -19 19
-39 19 -109 0 -74 -3 -89 -22 -109 l-21 -23 -318 0 c-311 0 -379 6 -363 32 5
7 0 9 -14 6 -12 -4 -23 0 -26 8 -3 8 -12 11 -22 7 -17 -6 -17 -5 -1 17 19 27
23 60 7 60 -6 0 -5 8 2 20 18 28 0 53 -46 64 -21 4 -40 15 -43 22 -3 8 -13 14
-22 15 -9 1 -6 4 9 9 14 5 209 8 433 7 l409 -2 19 -24z m-1462 -10 c-19 -26
-21 -39 -17 -115 3 -53 1 -83 -5 -77 -5 5 -7 50 -6 100 3 76 7 93 24 105 28
21 28 20 4 -13z m561 25 c0 -2 -9 -6 -20 -9 -11 -3 -18 -1 -14 4 5 9 34 13 34
5z m-60 -42 c0 -8 -4 -12 -10 -9 -5 3 -10 10 -10 16 0 5 5 9 10 9 6 0 10 -7
10 -16z m110 -29 c0 -8 -2 -15 -4 -15 -2 0 -6 7 -10 15 -3 8 -1 15 4 15 6 0
10 -7 10 -15z m57 -57 c-3 -8 -6 -5 -6 6 -1 11 2 17 5 13 3 -3 4 -12 1 -19z
m-67 -63 c-7 -8 -17 -15 -23 -15 -5 0 -2 9 8 20 21 23 35 19 15 -5z m870 -205
l0 -110 -84 0 -85 0 -26 88 c-14 48 -28 93 -30 100 -3 9 20 12 93 12 53 0 104
5 112 10 8 5 16 10 18 10 1 0 2 -49 2 -110z m-698 48 c-5 -34 -18 -58 -33 -58
-4 0 -1 12 7 28 7 15 14 37 14 50 0 13 4 21 8 18 5 -3 7 -20 4 -38z m178 31
c0 -25 -24 -89 -33 -89 -5 0 -6 7 -3 16 3 9 2 12 -5 9 -5 -4 -7 -14 -5 -23 3
-10 1 -24 -4 -32 -8 -13 -10 -12 -10 3 0 11 -5 15 -11 11 -7 -4 -7 1 1 16 11
21 10 22 -9 17 -12 -3 -19 -1 -15 4 3 5 -2 9 -11 9 -24 0 -30 28 -10 50 13 15
31 20 67 20 29 0 48 -4 48 -11z m240 -89 l0 -101 -77 5 -78 5 -3 95 -3 96 81
0 80 0 0 -100z m-1203 -47 c-2 -27 -3 -5 -3 47 0 52 1 74 3 48 2 -27 2 -69 0
-95z m520 115 c-3 -8 -6 -5 -6 6 -1 11 2 17 5 13 3 -3 4 -12 1 -19z"/>
<path d="M3350 2545 c0 -5 5 -17 10 -25 5 -8 10 -10 10 -5 0 6 -5 17 -10 25
-5 8 -10 11 -10 5z"/>
<path d="M1423 2428 c-6 -18 -27 -77 -47 -130 -21 -57 -31 -100 -26 -103 12
-7 253 -44 259 -39 3 3 -154 278 -169 297 -4 4 -11 -7 -17 -25z"/>
<path d="M3185 2362 c-5 -4 -11 -14 -13 -22 -2 -12 1 -11 11 2 8 10 17 15 20
11 4 -3 7 -1 7 5 0 14 -10 15 -25 4z"/>
<path d="M2985 2260 c3 -5 8 -10 11 -10 2 0 4 5 4 10 0 6 -5 10 -11 10 -5 0
-7 -4 -4 -10z"/>
<path d="M2298 2123 c6 -2 10 -9 6 -14 -3 -5 0 -9 5 -9 6 0 11 7 11 15 0 8 -8
15 -17 14 -11 0 -13 -3 -5 -6z"/>
<path d="M2180 2102 c0 -19 4 -21 46 -17 55 6 72 14 53 26 -19 12 -42 11 -34
-1 3 -5 1 -10 -4 -10 -6 0 -11 5 -11 10 0 6 -5 10 -11 10 -5 0 -7 -4 -4 -10 9
-14 -8 -13 -23 2 -9 9 -12 7 -12 -10z"/>
<path d="M2959 616 c0 -20 -1 -55 -1 -78 -1 -27 3 -43 10 -42 7 1 30 2 52 3
l40 1 0 75 c0 68 -2 75 -20 75 -16 0 -20 -7 -21 -37 l-2 -38 -6 35 c-4 26 -12
36 -28 38 -20 3 -23 -1 -24 -32z"/>
<path d="M3079 646 c0 -1 -3 -34 -6 -73 l-5 -73 26 0 c24 0 26 3 26 44 0 30 5
46 15 50 12 4 15 -4 15 -44 0 -47 2 -50 25 -50 23 0 25 4 25 45 0 25 5 45 10
45 6 0 10 12 10 28 0 27 0 27 -70 28 -39 0 -70 0 -71 0z"/>
<path d="M3246 634 c-19 -19 -22 -104 -4 -122 15 -15 61 -15 76 0 18 18 15 46
-5 51 -17 4 -17 5 0 6 40 3 9 81 -33 81 -10 0 -26 -7 -34 -16z m44 -86 c0 -16
-3 -19 -11 -11 -6 6 -8 16 -5 22 11 17 16 13 16 -11z"/>
<path d="M3345 642 c-3 -3 -5 -36 -5 -74 0 -66 1 -68 25 -68 23 0 24 4 28 63
l3 62 2 -63 c2 -59 3 -63 24 -60 21 3 22 8 20 66 -1 35 -4 67 -7 71 -5 9 -81
11 -90 3z"/>
<path d="M3472 638 c-14 -14 -16 -106 -3 -126 12 -20 62 -10 79 15 13 21 13
23 -3 30 -12 4 -23 0 -31 -12 -12 -17 -14 -13 -13 31 1 27 3 41 6 32 6 -25 43
-23 43 2 0 33 -54 52 -78 28z"/>
<path d="M3566 603 c4 -26 8 -65 7 -85 -1 -33 2 -38 20 -38 12 0 27 4 33 8 13
8 36 140 28 154 -11 18 -34 7 -34 -16 0 -35 -18 -42 -22 -9 -2 18 -10 29 -22
31 -17 4 -18 0 -10 -45z"/>
</g>
</svg>
